# xmcd
# 
# Track frame offsets:
#     150
#     20813
#     48918
#     74476
#     95265
#     113888
#     153274
#     165662
#     193721
#     220894
# 
# Disc length: 3540
# 
# Revision: 1
# Processed by: cddbd v1.5.2PL0 Copyright (c) Steve Scherf et al.
# Submitted via: BonkEnc v1.0.8
# 
DISCID=870dd20a
DTITLE=Walt's Blues Box - Walt's Blues Box
DYEAR=2007
DGENRE=Blues
TTITLE0=You didn't think about that
TTITLE1=Chicken
TTITLE2=The thrill is gone
TTITLE3=It's over now
TTITLE4=Woman have a way with the fool
TTITLE5=5 o'clock
TTITLE6=Looking back
TTITLE7=Start it up
TTITLE8=Gimme what you got
TTITLE9=Bad case of love
EXTD=
EXTT0=
EXTT1=
EXTT2=
EXTT3=
EXTT4=
EXTT5=
EXTT6=
EXTT7=
EXTT8=
EXTT9=
PLAYORDER=
